<svg xmlns="http://www.w3.org/2000/svg" version="1.1" xmlns:xlink="http://www.w3.org/1999/xlink" xmlns:svgjs="http://svgjs.dev/svgjs" width="2560" height="4440" preserveAspectRatio="none" viewBox="0 0 2560 4440"><g mask="url(&quot;#SvgjsMask1035&quot;)" fill="none"><rect width="2560" height="4440" x="0" y="0" fill="rgba(21, 27, 31, 1)"></rect><path d="M0,1642.815C391.784,1753.86,831.269,2046.278,1180.953,1837.599C1527.848,1630.584,1465.313,1105.027,1559.461,712.182C1635.669,394.195,1715.02,83.59,1679.208,-241.434C1642.471,-574.85,1515.657,-878.689,1351.918,-1171.444C1152.468,-1528.047,994.831,-1954.303,624.564,-2127.07C242.759,-2305.221,-213.86,-2222.686,-613.201,-2088.372C-1003.093,-1957.236,-1397.492,-1742.502,-1593.726,-1380.972C-1780.1,-1037.607,-1567.172,-620.02,-1620.294,-232.963C-1672.909,150.405,-2084.778,527.501,-1902.502,868.844C-1716.969,1216.285,-1181.858,1122.882,-817.018,1271.305C-534.171,1386.372,-293.784,1559.546,0,1642.815" fill="#14191d"></path><path d="M2560 6451.082C2933.021 6452.753 3075.1620000000003 5930.777 3398.305 5744.427 3747.042 5543.317 4257.855 5645.656 4506.147 5328.775 4757.888 5007.491 4711.064 4543.067 4656.581 4138.557 4601.754 3731.491 4498.287 3300.385 4195.555 3022.784 3902.158 2753.743 3469.423 2737.742 3074.492 2687.8019999999997 2732.951 2644.6130000000003 2399.467 2672.833 2064.752 2753.339 1714.383 2837.611 1293.74 2868.8199999999997 1088.987 3165.3599999999997 884.413 3461.64 1075.175 3863.735 1050.056 4222.903 1027.304 4548.218 815.3389999999999 4878.264 948.367 5176.008 1081.496 5473.977 1470.568 5534.445 1726.509 5736.937 2019.364 5968.635 2186.577 6449.409 2560 6451.082" fill="#161d21"></path></g><defs><mask id="SvgjsMask1035"><rect width="2560" height="4440" fill="#ffffff"></rect></mask></defs></svg>