<svg xmlns="http://www.w3.org/2000/svg" version="1.1" xmlns:xlink="http://www.w3.org/1999/xlink" xmlns:svgjs="http://svgjs.dev/svgjs" width="2560" height="1440" preserveAspectRatio="none" viewBox="0 0 2560 1440"><g mask="url(&quot;#SvgjsMask1006&quot;)" fill="none"><rect width="2560" height="1440" x="0" y="0" fill="rgba(21, 27, 31, 1)"></rect><path d="M0,612.27C138.462,623.897,281.927,693.397,407.796,634.543C536.753,574.245,630.586,441.274,662.437,302.525C692.521,171.47,611.302,46.407,572.349,-82.291C539.62,-190.425,515.949,-298.571,452.26,-391.886C382.374,-494.281,302.4,-593.649,189.059,-643.874C67.517,-697.734,-72.682,-719.387,-199.928,-680.893C-326.76,-642.524,-410.549,-530.89,-501.855,-434.86C-597.573,-334.19,-752.023,-245.93,-745.424,-107.176C-738.582,36.678,-541.37,89.45,-470.944,215.073C-409.438,324.784,-462.18,488.47,-366.034,569.56C-270.192,650.393,-124.938,601.778,0,612.27" fill="#14191d"></path><path d="M2560 2260.3360000000002C2755.574 2289.445 2955.416 2416.701 3136.1549999999997 2336.514 3318.293 2255.706 3422.93 2049.441 3471.132 1856.1 3515.703 1677.323 3426.46 1501.233 3389.393 1320.751 3354.846 1152.539 3377.864 958.399 3260.933 832.638 3144.668 707.594 2947.188 726.803 2785.669 671.441 2614.561 612.792 2458.52 452.76700000000005 2283.267 497.534 2108.168 542.262 2045.769 755.294 1926.359 890.947 1805.775 1027.935 1642.664 1128.162 1577.9470000000001 1298.802 1504.679 1491.99 1438.799 1725.8809999999999 1541.763 1905.013 1644.9099999999999 2084.462 1889.02 2111.785 2084.444 2179.98 2239.371 2234.043 2397.699 2236.179 2560 2260.3360000000002" fill="#161d21"></path></g><defs><mask id="SvgjsMask1006"><rect width="2560" height="1440" fill="#ffffff"></rect></mask></defs></svg>