<svg xmlns="http://www.w3.org/2000/svg" version="1.1" xmlns:xlink="http://www.w3.org/1999/xlink" xmlns:svgjs="http://svgjs.dev/svgjs" width="2560" height="1440" preserveAspectRatio="none" viewBox="0 0 2560 1440"><g mask="url(&quot;#SvgjsMask1137&quot;)" fill="none"><rect width="2560" height="1440" x="0" y="0" fill="rgba(77, 139, 207, 1)"></rect><path d="M0,1068.035C212.883,1096.821,431.857,1067.087,623.87,970.761C828.758,867.975,1010.739,713.374,1114.451,508.953C1220.353,300.215,1256.122,55.098,1204.221,-173.141C1154.23,-392.979,994.436,-564.228,834.319,-722.942C684.054,-871.891,520.172,-1027.818,310.857,-1058.681C110.062,-1088.288,-67.699,-950.235,-259.637,-884.241C-441.244,-821.799,-631.806,-795.357,-786.393,-681.414C-969.055,-546.778,-1179.636,-398.666,-1221.097,-175.567C-1262.719,48.401,-1128.744,269.296,-997.702,455.635C-881.288,621.172,-696.583,709.664,-524.109,815.53C-355.422,919.072,-196.145,1041.512,0,1068.035" fill="#4082cb"></path><path d="M2560 2253.812C2707.052 2225.351 2805.331 2097.188 2921.92 2003.159 3025.183 1919.878 3134.513 1847.0720000000001 3204.253 1734.221 3280.816 1610.33 3330.875 1473.373 3339.177 1327.971 3348.8289999999997 1158.923 3361.571 969.3299999999999 3255.458 837.382 3148.823 704.786 2960.831 673.01 2792.496 648.192 2640.278 625.751 2485.912 644.5 2343.581 702.944 2210.747 757.488 2091.949 846.462 2014.757 967.5450000000001 1943.233 1079.737 1936.076 1216.644 1931.3229999999999 1349.61 1926.996 1470.651 1964.614 1582.247 1988.539 1700.978 2020.417 1859.179 1979.269 2050.947 2095.257 2163.1549999999997 2211.041 2275.165 2401.838 2284.423 2560 2253.812" fill="#5a94d3"></path></g><defs><mask id="SvgjsMask1137"><rect width="2560" height="1440" fill="#ffffff"></rect></mask></defs></svg>