<?xml version="1.0" encoding="utf-8"?>
<svg version="1.1" id="Vrstva_1" x="0px" y="0px" viewBox="0 0 36.947 36.846" style="enable-background:new 0 0 83.1 52.8;" xmlns="http://www.w3.org/2000/svg">
  <style type="text/css">
	.st0{fill-rule:evenodd;clip-rule:evenodd;}
</style>
  <g transform="matrix(1, 0, 0, 1, -6.457554, 0.696403)">
    <path class="st0" d="M 42.923 17.747 C 42.923 7.847 34.823 -0.253 24.923 -0.253 C 15.023 -0.253 6.923 7.847 6.923 17.747 L 8.123 17.747 C 8.123 8.447 15.623 0.947 24.923 0.947 C 34.223 0.947 41.723 8.447 41.723 17.747 L 42.923 17.747 Z"/>
    <path class="st0" d="M 40.523 17.747 C 40.523 13.947 39.223 10.447 36.923 7.747 L 36.923 9.747 C 38.423 12.047 39.323 14.747 39.323 17.747 L 40.523 17.747 Z M 35.723 6.447 C 34.623 5.447 33.423 4.547 32.123 3.847 L 32.123 5.247 C 33.523 6.047 34.723 7.047 35.723 8.147 L 35.723 6.447 Z M 30.923 3.347 C 29.823 2.847 28.623 2.547 27.323 2.347 L 27.323 3.547 C 28.623 3.747 29.823 4.147 30.923 4.647 L 30.923 3.347 Z M 26.123 2.247 C 25.723 2.247 25.323 2.247 24.923 2.247 C 24.523 2.247 24.123 2.247 23.723 2.247 L 23.723 3.447 C 24.123 3.447 24.523 3.347 24.923 3.347 C 25.323 3.347 25.723 3.347 26.123 3.447 L 26.123 2.247 Z M 22.523 2.347 C 21.223 2.547 20.023 2.847 18.923 3.347 L 18.923 4.647 C 20.023 4.147 21.223 3.747 22.523 3.547 L 22.523 2.347 Z M 17.723 3.947 C 16.423 4.647 15.223 5.547 14.123 6.547 L 14.123 8.247 C 15.123 7.047 16.323 6.047 17.723 5.347 L 17.723 3.947 Z M 12.923 7.747 C 10.623 10.447 9.323 13.947 9.323 17.747 L 10.523 17.747 C 10.523 14.847 11.423 12.047 12.923 9.747 L 12.923 7.747 Z"/>
    <rect x="6.923" y="17.747" class="st0" width="1.2" height="16.8"/>
    <rect x="6.923" y="34.547" class="st0" width="3.6" height="1.2"/>
    <rect x="9.323" y="17.747" class="st0" width="1.2" height="16.8"/>
    <path class="st0" d="M 11.723 11.747 L 11.723 35.747 L 12.923 35.747 L 12.923 7.647 C 12.323 8.947 11.923 10.347 11.723 11.747 Z"/>
    <path class="st0" d="M 14.123 7.847 L 14.123 35.747 L 15.323 35.747 L 15.323 6.347 C 14.823 6.847 14.523 7.347 14.123 7.847 Z"/>
    <path class="st0" d="M 16.523 5.547 L 16.523 35.747 L 17.723 35.747 L 17.723 4.747 C 17.323 4.947 16.923 5.247 16.523 5.547 Z"/>
    <path class="st0" d="M 18.923 4.047 L 18.923 35.747 L 20.123 35.747 L 20.123 3.547 C 19.723 3.747 19.323 3.847 18.923 4.047 Z"/>
    <path class="st0" d="M 21.323 3.247 L 21.323 35.747 L 22.523 35.747 L 22.523 2.947 C 22.123 3.047 21.723 3.047 21.323 3.247 Z"/>
    <path class="st0" d="M 27.323 2.947 L 27.323 35.747 L 28.523 35.747 L 28.523 3.247 C 28.123 3.047 27.723 3.047 27.323 2.947 Z"/>
    <path class="st0" d="M 29.723 3.847 L 29.723 35.747 L 30.923 35.747 L 30.923 4.347 C 30.523 4.147 30.123 3.947 29.723 3.847 Z"/>
    <path class="st0" d="M 32.123 4.947 L 32.123 35.747 L 33.323 35.747 L 33.323 5.747 C 32.923 5.547 32.523 5.247 32.123 4.947 Z"/>
    <path class="st0" d="M 34.523 6.147 L 34.523 35.747 L 35.723 35.747 L 35.723 7.547 C 35.323 7.047 34.923 6.547 34.523 6.147 Z"/>
    <path class="st0" d="M 36.923 8.347 L 36.923 35.747 L 38.123 35.747 L 38.123 12.047 C 37.923 10.547 37.523 9.647 36.923 8.347 Z"/>
    <rect x="39.323" y="17.747" class="st0" width="1.2" height="16.8"/>
    <rect x="39.323" y="34.547" class="st0" width="3.6" height="1.2"/>
    <rect x="34.523" y="34.547" class="st0" width="3.6" height="1.2"/>
    <rect x="29.723" y="34.547" class="st0" width="3.6" height="1.2"/>
    <rect x="16.523" y="34.547" class="st0" width="3.6" height="1.2"/>
    <rect x="11.723" y="34.547" class="st0" width="3.6" height="1.2"/>
    <rect x="25.123" y="34.547" class="st0" width="3.4" height="1.2"/>
    <rect x="21.323" y="34.547" class="st0" width="3.4" height="1.2"/>
    <rect x="41.723" y="17.747" class="st0" width="1.2" height="16.8"/>
    <rect x="23.723" y="3.147" class="st0" width="1" height="32.6"/>
    <rect x="25.123" y="3.147" class="st0" width="1" height="32.6"/>
  </g>
</svg>