<?xml version="1.0" standalone="no"?>
<!DOCTYPE svg PUBLIC "-//W3C//DTD SVG 20010904//EN"
 "http://www.w3.org/TR/2001/REC-SVG-20010904/DTD/svg10.dtd">
<svg version="1.0" xmlns="http://www.w3.org/2000/svg"
 width="700.000000pt" height="700.000000pt" viewBox="0 0 700.000000 700.000000"
 preserveAspectRatio="xMidYMid meet">
<metadata>
Created by potrace 1.14, written by Peter Selinger 2001-2017
</metadata>
<g transform="translate(0.000000,700.000000) scale(0.100000,-0.100000)"
fill="#000000" stroke="none">
<path d="M3377 6914 c-1 -1 -51 -4 -112 -8 -119 -7 -141 -9 -285 -31 -135 -21
-140 -22 -299 -61 -139 -34 -390 -116 -481 -156 -159 -71 -383 -188 -493 -256
-344 -216 -662 -504 -895 -807 -34 -44 -66 -86 -72 -92 -6 -7 -48 -70 -94
-140 -116 -178 -187 -311 -302 -570 -81 -180 -186 -566 -219 -798 -3 -22 -8
-53 -10 -70 -3 -16 -8 -50 -12 -75 -4 -25 -8 -884 -10 -1910 l-4 -1865 335 1
c185 0 338 2 340 5 3 3 7 826 9 1830 2 1003 6 1840 10 1859 3 19 8 59 11 88 4
29 11 76 17 105 6 28 13 66 15 82 7 43 51 207 80 298 59 186 169 426 271 595
l47 77 1 187 c1 214 6 208 -85 88 -172 -227 -294 -445 -396 -707 -75 -191
-149 -473 -169 -648 -4 -33 -9 -69 -11 -80 -16 -83 -19 -401 -19 -1875 l0
-1675 -115 0 -115 0 1 1675 c1 1536 3 1756 19 1875 23 171 30 214 61 355 95
426 287 842 553 1200 148 199 342 402 535 559 431 352 969 595 1501 676 61 10
118 19 127 20 96 18 483 25 643 12 648 -54 1230 -287 1740 -694 133 -106 343
-313 449 -443 43 -52 85 -104 94 -115 41 -50 184 -270 237 -365 77 -138 162
-324 219 -484 44 -120 117 -385 130 -472 4 -22 9 -55 12 -74 4 -19 8 -42 9
-50 2 -9 6 -43 10 -75 4 -33 9 -71 11 -85 12 -69 16 -551 18 -1966 l1 -1550
-115 0 -115 1 -1 1625 c0 1462 -4 1819 -18 1900 -2 14 -7 50 -10 80 -19 174
-87 444 -163 648 -100 269 -294 606 -458 797 l-35 40 0 -188 0 -188 62 -102
c148 -244 285 -592 333 -842 6 -31 33 -182 40 -222 16 -95 19 -447 20 -1998 0
-1377 3 -1771 12 -1775 7 -3 160 -5 340 -5 l328 1 0 1809 c0 1589 -3 1915 -20
2017 -2 13 -9 59 -15 103 -7 44 -14 89 -16 100 -2 11 -7 36 -10 55 -23 133
-108 424 -166 570 -42 106 -39 100 -117 260 -87 179 -111 222 -215 380 -349
529 -834 952 -1401 1221 -168 79 -441 180 -585 214 -228 55 -395 83 -595 101
-64 6 -383 12 -388 8z"/>
<path d="M3270 3260 c0 -1749 3 -3181 8 -3181 4 -1 46 -2 95 -3 l87 -1 0 3078
0 3077 38 0 38 0 -1 -3071 c0 -1998 3 -3073 10 -3077 12 -7 174 -9 176 -2 1 3
3 1435 4 3183 l1 3177 -228 0 -228 0 0 -3180z"/>
<path d="M2970 6409 c-19 -4 -48 -9 -65 -12 -130 -21 -380 -94 -497 -145 l-46
-21 0 -3074 c-1 -2367 2 -3076 11 -3079 7 -2 57 -3 112 -3 l100 1 3 3002 2
3001 98 31 c54 17 107 32 118 35 164 34 230 50 234 56 3 4 5 54 4 111 0 115 1
113 -74 97z"/>
<path d="M3954 6308 l1 -112 35 -8 c19 -4 51 -10 70 -13 19 -3 43 -8 52 -11 9
-3 26 -7 39 -9 12 -2 36 -9 53 -14 17 -5 70 -21 118 -36 l87 -26 0 -2977 c0
-1637 0 -2988 1 -3002 l0 -25 107 2 c60 1 110 2 113 2 3 1 5 1385 5 3076 l0
3075 -44 21 c-88 41 -291 104 -432 133 -13 3 -35 7 -49 10 -48 11 -75 15 -116
21 l-42 6 2 -113z"/>
<path d="M4863 6004 l0 -134 36 -22 c20 -12 41 -25 46 -28 62 -32 260 -177
331 -242 l41 -38 0 -2723 c0 -1498 2 -2728 6 -2733 4 -8 112 -10 207 -5 13 1
15 317 15 2781 l0 2781 -35 32 c-65 59 -154 133 -230 190 -41 32 -79 61 -85
65 -29 23 -171 115 -246 159 l-86 51 0 -134z"/>
<path d="M2013 6047 c-192 -117 -432 -298 -549 -415 -11 -10 -13 -533 -11
-2784 l2 -2772 100 -1 c55 0 106 1 113 3 9 3 12 559 12 2733 l0 2729 73 60
c83 69 237 174 317 216 30 16 57 30 59 32 10 6 6 262 -4 262 -5 0 -56 -28
-112 -63z"/>
</g>
</svg>
